<svg width="60" height="60" viewBox="0 0 60 60" xmlns="http://www.w3.org/2000/svg">
  <defs>
    <linearGradient id="keralaBg" x1="0%" y1="0%" x2="100%" y2="100%">
      <stop offset="0%" style="stop-color:#2E7D32"/>
      <stop offset="50%" style="stop-color:#388E3C"/>
      <stop offset="100%" style="stop-color:#4CAF50"/>
    </linearGradient>
    <linearGradient id="goldAccent" x1="0%" y1="0%" x2="100%" y2="100%">
      <stop offset="0%" style="stop-color:#FF8F00"/>
      <stop offset="100%" style="stop-color:#FFB74D"/>
    </linearGradient>
    <filter id="shadow" x="-20%" y="-20%" width="140%" height="140%">
      <feDropShadow dx="0" dy="2" stdDeviation="3" flood-color="rgba(46, 125, 50, 0.3)"/>
    </filter>
  </defs>
  
  <!-- Background Circle -->
  <circle cx="30" cy="30" r="28" fill="url(#keralaBg)" filter="url(#shadow)"/>
  
  <!-- Kerala Landscape Elements -->
  <!-- Palm Trees -->
  <g transform="translate(12, 15)">
    <!-- Coconut Tree Trunk -->
    <path d="M8 20 Q10 15 9 10 Q8 5 10 0" stroke="#8D6E63" stroke-width="2" fill="none"/>
    <!-- Coconut Fronds -->
    <path d="M10 2 Q5 0 2 3 M10 2 Q15 0 18 3 M10 4 Q6 6 3 9 M10 4 Q14 6 17 9" 
          stroke="#2E7D32" stroke-width="1.5" fill="none"/>
    <!-- Coconuts -->
    <circle cx="9" cy="8" r="1.5" fill="#8D6E63"/>
    <circle cx="11" cy="7" r="1.5" fill="#8D6E63"/>
  </g>
  
  <!-- Rice Fields (Stylized waves) -->
  <g transform="translate(5, 25)">
    <path d="M0 8 Q5 6 10 8 Q15 10 20 8 Q25 6 30 8 Q35 10 40 8" 
          stroke="#FFD54F" stroke-width="2" fill="none"/>
    <path d="M0 12 Q5 10 10 12 Q15 14 20 12 Q25 10 30 12 Q35 14 40 12" 
          stroke="#FFE082" stroke-width="1.5" fill="none"/>
  </g>
  
  <!-- Spice/Pepper Vine -->
  <g transform="translate(35, 12)">
    <path d="M0 0 Q2 5 0 10 Q-2 15 0 20" stroke="#1B5E20" stroke-width="1.5" fill="none"/>
    <!-- Pepper berries -->
    <circle cx="1" cy="5" r="0.8" fill="#2E7D32"/>
    <circle cx="-1" cy="8" r="0.8" fill="#2E7D32"/>
    <circle cx="1" cy="12" r="0.8" fill="#2E7D32"/>
    <circle cx="-1" cy="16" r="0.8" fill="#2E7D32"/>
  </g>
  
  <!-- AI Brain Symbol -->
  <g transform="translate(22, 35)">
    <circle cx="8" cy="8" r="6" fill="none" stroke="url(#goldAccent)" stroke-width="1.5"/>
    <!-- Neural network nodes -->
    <circle cx="5" cy="5" r="1" fill="url(#goldAccent)"/>
    <circle cx="11" cy="5" r="1" fill="url(#goldAccent)"/>
    <circle cx="8" cy="8" r="1" fill="url(#goldAccent)"/>
    <circle cx="5" cy="11" r="1" fill="url(#goldAccent)"/>
    <circle cx="11" cy="11" r="1" fill="url(#goldAccent)"/>
    <!-- Connections -->
    <line x1="5" y1="5" x2="8" y2="8" stroke="url(#goldAccent)" stroke-width="0.8"/>
    <line x1="11" y1="5" x2="8" y2="8" stroke="url(#goldAccent)" stroke-width="0.8"/>
    <line x1="8" y1="8" x2="5" y2="11" stroke="url(#goldAccent)" stroke-width="0.8"/>
    <line x1="8" y1="8" x2="11" y2="11" stroke="url(#goldAccent)" stroke-width="0.8"/>
  </g>
  
  <!-- Decorative Border -->
  <circle cx="30" cy="30" r="28" fill="none" stroke="rgba(255, 255, 255, 0.2)" stroke-width="1"/>
</svg>
